<?xml version="1.0" encoding="utf-8"?>
<!-- Generator: Adobe Illustrator 17.0.0, SVG Export Plug-In . SVG Version: 6.00 Build 0)  -->
<!DOCTYPE svg PUBLIC "-//W3C//DTD SVG 1.1//EN" "http://www.w3.org/Graphics/SVG/1.1/DTD/svg11.dtd">
<svg version="1.1" id="Vrstva_1" xmlns="http://www.w3.org/2000/svg" xmlns:xlink="http://www.w3.org/1999/xlink" x="0px" y="0px"
	 width="20px" height="20px" viewBox="0 0 20 20" enable-background="new 0 0 20 20" xml:space="preserve">
<g>
	<g>
		<path fill="currentColor" d="M0,16.291c0,1.255,1.021,2.276,2.276,2.276h16.459v-1.012h-1.054v-2.529h1.054v-0.443H20v-1.012h-0.759
			v-2.529H20v-1.012h-0.822V9.167l-1.249-2.339h1.312v-1.36l-3.301-4.035H4.295L1.292,6.165C0.778,6.583,0.443,7.212,0.443,7.924
			c0,1.247,1.009,2.261,2.254,2.274c-0.837,0.336-1.432,1.153-1.432,2.11c0,0.694,0.319,1.309,0.811,1.727
			C0.916,14.138,0,15.104,0,16.291L0,16.291z M1.454,7.924c0-0.472,0.262-0.879,0.646-1.096h15.076v2.361H2.719
			C2.022,9.189,1.454,8.622,1.454,7.924L1.454,7.924z M3.541,11.043H18.23v2.529H3.541c-0.697,0-1.265-0.567-1.265-1.264
			C2.276,11.61,2.843,11.043,3.541,11.043L3.541,11.043z M2.276,15.026H16.67v2.529H2.276c-0.697,0-1.264-0.567-1.264-1.265
			C1.012,15.593,1.579,15.026,2.276,15.026L2.276,15.026z M2.276,15.026"/>
	</g>
</g>
</svg>
