<?xml version="1.0" encoding="utf-8"?>
<!-- Generator: Adobe Illustrator 17.0.0, SVG Export Plug-In . SVG Version: 6.00 Build 0)  -->
<!DOCTYPE svg PUBLIC "-//W3C//DTD SVG 1.1//EN" "http://www.w3.org/Graphics/SVG/1.1/DTD/svg11.dtd">
<svg version="1.1" id="Vrstva_1" xmlns="http://www.w3.org/2000/svg" xmlns:xlink="http://www.w3.org/1999/xlink" x="0px" y="0px"
	 width="25.602px" height="25.414px" viewBox="0 0 25.602 25.414" enable-background="new 0 0 25.602 25.414" xml:space="preserve">
<title>Adresa</title>
<g>
	<path fill="currentColor" d="M12,6.859l5.203-5.598l5.445,6.86l1.094,0.105L17.566,0L8.777,2.168L3.336,7.921L12,6.859z M12,6.859"/>
	<path fill="currentColor" d="M21.957,14.894V8.117l-4.785-6.078l-4.926,5.3L3.789,8.375v6.515L0,18.043l2.25,0.031v6.269l9.848,1.071l6.015-0.614
		v-6.183l3.547-0.067v5.891l1.77-0.18v-6.05h2.172L21.957,14.894z M4.801,9.879l2.426-0.243v2.77l-2.426,0.152V9.879z M7.309,21.625
		l-2.434-0.141V18.8l2.434,0.051V21.625z M7.309,17.125l-2.434,0.004v-2.684l2.434-0.09V17.125z M8.383,9.492l2.672-0.266v2.91
		l-2.672,0.168V9.492z M11.145,21.816l-2.68-0.152v-2.817l2.68,0.059V21.816z M11.145,17.089l-2.68,0.004v-2.812l2.68-0.102V17.089z
		 M13.332,9.195l2.898,0.293v2.836l-2.898-0.184V9.195z M13.43,14.062l2.89,0.113v2.832L13.43,17V14.062z M16.461,21.605
		l-2.879,0.164v-2.933l2.879-0.059V21.605z M17.004,7.136c-0.547-0.074-0.996-0.804-0.996-1.636c0-0.829,0.449-1.422,0.996-1.329
		c0.539,0.09,0.973,0.821,0.973,1.629C17.977,6.609,17.543,7.207,17.004,7.136L17.004,7.136z M17.898,9.675l2.579,0.258v2.68
		l-2.579-0.164V9.675z M20.559,17.039l-2.575-0.008v-2.77l2.575,0.102V17.039z M20.559,17.039"/>
</g>
</svg>
