<?xml version="1.0" encoding="utf-8"?>
<!-- Generator: Adobe Illustrator 17.0.0, SVG Export Plug-In . SVG Version: 6.00 Build 0)  -->
<!DOCTYPE svg PUBLIC "-//W3C//DTD SVG 1.1//EN" "http://www.w3.org/Graphics/SVG/1.1/DTD/svg11.dtd">
<svg version="1.1" id="Layer_2" xmlns="http://www.w3.org/2000/svg" xmlns:xlink="http://www.w3.org/1999/xlink" x="0px" y="0px"
	 width="20px" height="20px" viewBox="0 0 20 20" enable-background="new 0 0 20 20" xml:space="preserve">
<path fill="#FFFFFF" d="M19.755,7.361c-0.211-0.263-0.53-0.417-0.866-0.417h-1.111c0-0.614-0.497-1.111-1.111-1.111h-1.111V4.722
	c0-0.614-0.497-1.111-1.111-1.111h-0.556V1.389c0-0.306-0.249-0.556-0.556-0.556H2.222c-0.308,0-0.556,0.249-0.556,0.556v2.222
	H1.111C0.497,3.611,0,4.108,0,4.722v13.333c0,0.614,0.497,1.111,1.111,1.111h15.555c0.521,0,0.972-0.362,1.085-0.87l2.222-10
	C20.047,7.967,19.965,7.624,19.755,7.361L19.755,7.361z M1.667,18.055H1.111V4.722h0.556V18.055z M13.333,5.833
	c-0.614,0-1.111,0.497-1.111,1.111H5.555c-0.521,0-0.972,0.362-1.085,0.87c0,0-2.248,10.16-2.248,10.241V1.389h11.111V5.833z
	 M14.444,5.833h-0.556V4.722h0.556V5.833z M11.037,3.852H4.408c-0.306,0-0.556-0.25-0.556-0.556c0-0.306,0.249-0.556,0.556-0.556
	h6.629c0.306,0,0.556,0.249,0.556,0.556C11.592,3.602,11.343,3.852,11.037,3.852L11.037,3.852z M11.037,6.111H4.408
	c-0.306,0-0.556-0.249-0.556-0.556C3.852,5.25,4.102,5,4.408,5h6.629c0.306,0,0.556,0.249,0.556,0.556
	C11.592,5.862,11.343,6.111,11.037,6.111L11.037,6.111z M11.037,6.111"/>
</svg>
