<?xml version="1.0" encoding="utf-8"?>
<!-- Generator: Adobe Illustrator 17.0.0, SVG Export Plug-In . SVG Version: 6.00 Build 0)  -->
<!DOCTYPE svg PUBLIC "-//W3C//DTD SVG 1.1//EN" "http://www.w3.org/Graphics/SVG/1.1/DTD/svg11.dtd">
<svg version="1.1" id="Vrstva_1" xmlns="http://www.w3.org/2000/svg" xmlns:xlink="http://www.w3.org/1999/xlink" x="0px" y="0px"
	 width="22.023px" height="15.563px" viewBox="0 0 22.023 15.563" enable-background="new 0 0 22.023 15.563" xml:space="preserve">
<g>
	<path fill="currentColor" d="M18.766,9.782l-0.571-3.286l-6.968,4.157L4.391,6.496l-0.567,3.547c0-0.004,0.008-0.007,0.012-0.015
		c-0.082,0.136-0.125,0.277-0.125,0.418c0,1.254,5.262,5.117,7.012,5.117c1.754,0,8.156-3.859,8.156-5.117
		C18.879,10.313,18.836,10.18,18.766,9.782L18.766,9.782z M11.281,9.918L0.57,3.426L11.309,0l10.714,3.375L11.281,9.918z M0.641,4
		L0,11.114l0.641,2.132l0.597-2.132L0.641,4z M0.641,4"/>
</g>
</svg>
