<?xml version="1.0" encoding="utf-8"?>
<!-- Generator: Adobe Illustrator 17.0.0, SVG Export Plug-In . SVG Version: 6.00 Build 0)  -->
<!DOCTYPE svg PUBLIC "-//W3C//DTD SVG 1.1//EN" "http://www.w3.org/Graphics/SVG/1.1/DTD/svg11.dtd">
<svg version="1.1" id="Layer_2" xmlns="http://www.w3.org/2000/svg" xmlns:xlink="http://www.w3.org/1999/xlink" x="0px" y="0px"
	 width="70.855px" height="64.945px" viewBox="0 0 70.855 64.945" enable-background="new 0 0 70.855 64.945" xml:space="preserve">
<path fill="currentColor" d="M19.445,9.082C19.445,4.066,23.512,0,28.531,0c5.016,0,9.082,4.066,9.082,9.082c0,5.016-4.066,9.082-9.082,9.082
	C23.512,18.164,19.445,14.098,19.445,9.082L19.445,9.082z M32.895,24.352c0.089-1.977,0.773-3.809,1.867-5.321
	c-0.77-0.16-1.563-0.246-2.379-0.246h-7.707c-0.813,0-1.606,0.086-2.371,0.242c1.168,1.618,1.863,3.594,1.875,5.731
	c1.418-0.781,3.043-1.223,4.769-1.223C30.352,23.535,31.684,23.828,32.895,24.352L32.895,24.352z M34.434,25.168
	c2.636,1.656,4.488,4.453,4.824,7.703c1.074,0.5,2.269,0.793,3.535,0.793c4.621,0,8.367-3.75,8.367-8.371s-3.746-8.367-8.367-8.367
	C38.215,16.926,34.5,20.605,34.434,25.168L34.434,25.168z M28.949,42.301c4.621,0,8.367-3.746,8.367-8.367
	c0-4.622-3.746-8.368-8.367-8.368c-4.621,0-8.371,3.746-8.371,8.368C20.578,38.555,24.328,42.301,28.949,42.301L28.949,42.301z
	 M32.5,42.871h-7.102c-5.906,0-10.714,4.809-10.714,10.715v8.687l0.023,0.133l0.598,0.188c5.636,1.761,10.535,2.351,14.566,2.351
	c7.875,0,12.441-2.246,12.723-2.39l0.558-0.282h0.059v-8.687C43.211,47.68,38.406,42.871,32.5,42.871L32.5,42.871z M46.344,34.234
	h-7.047c-0.074,2.821-1.277,5.36-3.18,7.184c5.25,1.562,9.09,6.43,9.09,12.184v2.675c6.957-0.257,10.969-2.226,11.231-2.359
	L57,53.633h0.059v-8.688C57.059,39.039,52.254,34.234,46.344,34.234L46.344,34.234z M48.23,16.746
	c2.637,1.656,4.489,4.453,4.825,7.703c1.074,0.504,2.269,0.793,3.535,0.793c4.621,0,8.367-3.746,8.367-8.367
	c0-4.621-3.746-8.367-8.367-8.367C52.012,8.508,48.297,12.187,48.23,16.746L48.23,16.746z M60.141,25.812h-7.047
	c-0.074,2.821-1.278,5.36-3.18,7.184c5.25,1.563,9.09,6.434,9.09,12.184v2.675c6.957-0.253,10.969-2.226,11.23-2.359l0.559-0.281
	h0.062v-8.688C70.855,30.621,66.047,25.812,60.141,25.812L60.141,25.812z M14.266,33.664c1.636,0,3.16-0.48,4.453-1.293
	c0.41-2.676,1.843-5.016,3.89-6.605c0.008-0.157,0.024-0.313,0.024-0.473c0-4.621-3.746-8.367-8.367-8.367s-8.368,3.746-8.368,8.367
	C5.898,29.918,9.645,33.664,14.266,33.664L14.266,33.664z M21.781,41.418c-1.894-1.816-3.093-4.344-3.179-7.145
	c-0.262-0.019-0.52-0.039-0.79-0.039h-7.097C4.805,34.234,0,39.039,0,44.949v8.684l0.023,0.137l0.598,0.187
	c4.52,1.41,8.559,2.063,12.067,2.266v-2.621C12.688,47.848,16.527,42.977,21.781,41.418L21.781,41.418z M21.781,41.418"/>
</svg>
