<?xml version="1.0" encoding="utf-8"?>
<!-- Generator: Adobe Illustrator 17.0.0, SVG Export Plug-In . SVG Version: 6.00 Build 0)  -->
<!DOCTYPE svg PUBLIC "-//W3C//DTD SVG 1.1//EN" "http://www.w3.org/Graphics/SVG/1.1/DTD/svg11.dtd">
<svg version="1.1" id="Layer_2" xmlns="http://www.w3.org/2000/svg" xmlns:xlink="http://www.w3.org/1999/xlink" x="0px" y="0px"
	 width="20px" height="20px" viewBox="0 0 20 20" enable-background="new 0 0 20 20" xml:space="preserve">
<path fill="#FFFFFF" d="M19.749,9.766c0.363-0.399,0.329-1.01-0.078-1.366l-8.937-7.82c-0.407-0.355-1.056-0.348-1.455,0.015
	L0.312,8.819c-0.397,0.363-0.418,0.974-0.044,1.362l0.224,0.234c0.374,0.389,0.976,0.435,1.346,0.105l0.671-0.601v8.787
	c0,0.539,0.437,0.976,0.976,0.976H6.98c0.54,0,0.976-0.437,0.976-0.976v-6.149h4.458v6.149c-0.007,0.539,0.378,0.974,0.918,0.974
	h3.704c0.54,0,0.976-0.435,0.976-0.974v-8.664c0,0,0.184,0.161,0.414,0.363c0.228,0.199,0.707,0.04,1.069-0.359L19.749,9.766z
	 M19.749,9.766"/>
</svg>
