<?xml version="1.0" encoding="utf-8"?>
<!-- Generator: Adobe Illustrator 17.0.0, SVG Export Plug-In . SVG Version: 6.00 Build 0)  -->
<!DOCTYPE svg PUBLIC "-//W3C//DTD SVG 1.1//EN" "http://www.w3.org/Graphics/SVG/1.1/DTD/svg11.dtd">
<svg version="1.1" id="Vrstva_1" xmlns="http://www.w3.org/2000/svg" xmlns:xlink="http://www.w3.org/1999/xlink" x="0px" y="0px"
	 width="20px" height="20px" viewBox="0 0 20 20" enable-background="new 0 0 20 20" xml:space="preserve">
<g>
	<path fill="#FFFFFF" d="M9.997,0C4.477,0,0,4.477,0,9.997C0,15.519,4.477,20,9.997,20C15.519,20,20,15.519,20,9.997
		C20,4.477,15.519,0,9.997,0L9.997,0z M12.081,15.499c-0.516,0.202-0.926,0.355-1.232,0.462c-0.306,0.108-0.661,0.162-1.067,0.162
		c-0.624,0-1.111-0.153-1.455-0.459c-0.347-0.302-0.516-0.69-0.516-1.157c0-0.182,0.013-0.367,0.037-0.558
		c0.025-0.19,0.067-0.401,0.124-0.641l0.645-2.277c0.057-0.219,0.107-0.425,0.144-0.616C8.8,10.216,8.82,10.04,8.82,9.878
		c0-0.289-0.061-0.492-0.182-0.607c-0.12-0.115-0.347-0.169-0.686-0.169c-0.165,0-0.339,0.024-0.513,0.074
		C7.265,9.229,7.117,9.279,6.994,9.324l0.169-0.698c0.421-0.174,0.826-0.318,1.21-0.442c0.385-0.125,0.748-0.186,1.092-0.186
		c0.619,0,1.095,0.152,1.429,0.451c0.334,0.297,0.505,0.686,0.505,1.165c0,0.099-0.013,0.273-0.034,0.521
		c-0.024,0.253-0.066,0.479-0.128,0.687l-0.64,2.268c-0.054,0.182-0.099,0.393-0.145,0.624c-0.041,0.232-0.061,0.409-0.061,0.529
		c0,0.302,0.07,0.509,0.202,0.616c0.137,0.112,0.368,0.165,0.703,0.165c0.157,0,0.331-0.029,0.529-0.082
		c0.195-0.053,0.339-0.103,0.43-0.144L12.081,15.499z M11.97,6.291c-0.302,0.276-0.661,0.417-1.083,0.417
		c-0.417,0-0.781-0.141-1.082-0.417C9.506,6.014,9.353,5.675,9.353,5.279c0-0.394,0.153-0.732,0.451-1.014
		c0.302-0.276,0.666-0.417,1.082-0.417c0.422,0,0.782,0.141,1.083,0.417c0.297,0.281,0.446,0.62,0.446,1.014
		C12.416,5.675,12.267,6.014,11.97,6.291L11.97,6.291z M11.97,6.291"/>
</g>
</svg>
