<?xml version="1.0" encoding="utf-8"?>
<!-- Generator: Adobe Illustrator 17.0.0, SVG Export Plug-In . SVG Version: 6.00 Build 0)  -->
<!DOCTYPE svg PUBLIC "-//W3C//DTD SVG 1.1//EN" "http://www.w3.org/Graphics/SVG/1.1/DTD/svg11.dtd">
<svg version="1.1" id="Vrstva_1" xmlns="http://www.w3.org/2000/svg" xmlns:xlink="http://www.w3.org/1999/xlink" x="0px" y="0px"
	 width="214.423px" height="122.182px" viewBox="0 0 214.423 122.182" enable-background="new 0 0 214.423 122.182"
	 xml:space="preserve">
	 <title>Logo</title>
<g>
	<g>
		<path fill="#EE7D00" d="M40.672,22.528c5.624-0.198,10.01-5.4,9.795-11.621c-0.215-6.22-4.949-11.101-10.571-10.901
			c-5.626,0.199-10.01,5.4-9.796,11.621C30.315,17.848,35.048,22.729,40.672,22.528"/>
		<path fill="#EE7D00" d="M108.623,30.13c4.963-0.174,8.836-4.517,8.656-9.703c-0.182-5.186-4.35-9.247-9.311-9.073
			c-4.963,0.172-8.84,4.514-8.659,9.701C99.492,26.24,103.662,30.303,108.623,30.13"/>
		<path fill="#EE7D00" d="M91.403,32.599c4.432-2.06,5.932-7.47,3.352-12.086c-2.579-4.615-8.26-6.687-12.693-4.627
			c-4.429,2.06-5.93,7.469-3.35,12.085C81.293,32.586,86.973,34.658,91.403,32.599"/>
		<path fill="#EE7D00" d="M124.813,32.903c4.564,1.746,10.09-0.716,12.34-5.5c2.252-4.785,0.379-10.078-4.186-11.824
			c-4.563-1.743-10.088,0.72-12.338,5.503C118.377,25.866,120.252,31.159,124.813,32.903"/>
		<path fill="#EE7D00" d="M139.952,42.685c-20.267-12.143-47.824-12.3-68.348-0.143c-8.478-10.203-21.667-17.88-36.47-17.339
			c-1.96,0.071-3.544,1.595-3.48,3.366c0.128,3.564,0.256,4.325,0.383,7.889l0.043,1.211c-3.256,0.436-14.867,2.639-20.332,12.344
			c-0.406,0.721-0.53,1.564-0.349,2.371l0.915,4.068c-7.278,2.49-11.71,10.59-11.92,10.98c-0.628,1.168-0.479,2.535,0.251,3.541
			c0.015,0.037,0.018,0.078,0.034,0.115l19.77,48.994c0.389,0.967,1.207,1.697,2.213,1.977c0.297,0.084,0.602,0.123,0.904,0.123
			c0.719,0,1.428-0.23,2.016-0.67c15.628-11.688,37.521-15.303,43.384-16.09c0.296-0.01,0.597-0.047,0.9-0.115
			c0.363-0.045,0.581-0.066,0.604-0.068c1.184-0.115,2.18-0.84,2.683-1.854c2.799-3.145-1.643-7.428-4.699-10.137
			c-7.293-6.459-17.494-9.031-27.515-9.471c-0.654-18.24-1.309-33.682-1.963-51.924c11.669,1.435,22.462,8.649,28.711,16.913
			c1.038,1.376,3.343,2.083,4.962,0.999c18.859-12.627,44.618-12.889,63.874-1.354C140.387,50.73,143.772,44.975,139.952,42.685z
			 M25.106,113.674L7.166,69.219c1.35-1.99,3.794-4.883,6.636-6.152l9.314,41.426c0.234,1.043,0.954,1.912,1.938,2.34
			c0.982,0.426,2.11,0.357,3.037-0.182c0.111-0.067,8.372-4.754,23.077-4.354C43.11,104.568,33.605,108.141,25.106,113.674z
			 M60.975,96.07l0.084,0.436c-15.554-2.43-26.694,0.414-32.286,2.521L18.256,52.25c3.872-5.626,11.23-7.365,14.066-7.842
			c0.512,14.221,1.021,28.441,1.531,42.664c0.066,1.811,1.751,3.133,3.714,3.121C45.851,90.152,54.246,91.586,60.975,96.07z"/>
	</g>
	<g>
		<polygon fill="#1D1D1B" points="80.12,57.105 83.355,57.105 86.406,68.062 87.088,71.531 87.367,71.531 88.096,68.062 
			91.124,57.105 94.287,57.105 89.504,74.463 84.977,74.463 		"/>
		<path fill="#1D1D1B" d="M101.561,74.702c-2.316,0-4.035-0.732-5.161-2.196c-1.127-1.462-1.691-3.693-1.691-6.697
			c0-3.021,0.565-5.263,1.691-6.732c1.126-1.471,2.844-2.205,5.161-2.205c2.331,0,4.061,0.734,5.197,2.205
			c1.131,1.47,1.698,3.712,1.698,6.732c0,3.018-0.563,5.254-1.689,6.71C105.642,73.974,103.907,74.702,101.561,74.702
			 M101.561,71.955c0.642,0,1.185-0.108,1.63-0.33c0.445-0.217,0.811-0.571,1.092-1.066c0.28-0.493,0.485-1.126,0.607-1.9
			c0.128-0.773,0.189-1.724,0.189-2.85c0-1.126-0.062-2.085-0.189-2.874c-0.122-0.789-0.327-1.43-0.607-1.925
			c-0.281-0.492-0.646-0.851-1.092-1.077c-0.445-0.227-0.988-0.343-1.63-0.343c-0.628,0-1.161,0.116-1.606,0.343
			c-0.447,0.227-0.81,0.585-1.091,1.077c-0.282,0.495-0.487,1.136-0.612,1.925c-0.122,0.789-0.187,1.748-0.187,2.874
			c0,1.11,0.064,2.057,0.187,2.839c0.125,0.784,0.33,1.418,0.612,1.911c0.281,0.495,0.64,0.85,1.079,1.066
			C100.379,71.847,100.919,71.955,101.561,71.955"/>
		<path fill="#1D1D1B" d="M114.884,74.746c-0.766,0-1.57-0.069-2.414-0.211c-0.848-0.142-1.692-0.358-2.534-0.656l0.069-2.768
			c0.25,0.123,0.553,0.238,0.914,0.338c0.361,0.104,0.736,0.197,1.125,0.283c0.392,0.087,0.784,0.151,1.174,0.2
			c0.393,0.045,0.752,0.069,1.082,0.069c0.936,0,1.645-0.2,2.121-0.598c0.477-0.398,0.717-0.975,0.717-1.726
			c0-0.358-0.071-0.667-0.211-0.926c-0.143-0.26-0.35-0.483-0.623-0.681c-0.273-0.194-0.598-0.371-0.973-0.526
			c-0.377-0.157-0.801-0.321-1.267-0.493c-0.563-0.205-1.082-0.431-1.562-0.681c-0.479-0.249-0.896-0.571-1.255-0.962
			c-0.362-0.391-0.642-0.876-0.845-1.455c-0.202-0.578-0.305-1.305-0.305-2.183c0-0.75,0.127-1.431,0.388-2.04
			c0.257-0.609,0.622-1.126,1.101-1.549c0.477-0.423,1.063-0.744,1.749-0.974c0.687-0.225,1.47-0.339,2.345-0.339
			c0.658,0,1.315,0.046,1.973,0.141c0.656,0.094,1.335,0.25,2.039,0.469l-0.046,2.653c-0.64-0.174-1.302-0.312-1.984-0.412
			c-0.679-0.102-1.245-0.153-1.698-0.153c-0.83,0-1.462,0.191-1.899,0.575c-0.438,0.383-0.657,0.927-0.657,1.629
			c0,0.377,0.077,0.699,0.234,0.964c0.154,0.264,0.375,0.499,0.666,0.703c0.293,0.203,0.637,0.392,1.033,0.562
			c0.4,0.174,0.84,0.353,1.325,0.538c0.565,0.222,1.075,0.468,1.537,0.74c0.46,0.274,0.858,0.607,1.187,0.997
			c0.328,0.391,0.582,0.853,0.762,1.384c0.18,0.532,0.27,1.173,0.27,1.925c0,0.797-0.129,1.517-0.385,2.156
			c-0.258,0.643-0.627,1.186-1.104,1.632c-0.478,0.446-1.057,0.786-1.735,1.02C116.516,74.629,115.745,74.746,114.884,74.746
			 M111.788,51.992l3.613,1.688l3.611-1.688v2.253l-3.611,1.688l-3.613-1.688V51.992z"/>
		<path fill="#1D1D1B" d="M122.393,57.223c0.705-0.125,1.407-0.217,2.109-0.271c0.706-0.054,1.4-0.08,2.09-0.08
			c2.548,0,4.4,0.484,5.558,1.453c1.159,0.969,1.738,2.527,1.738,4.669c0,2.113-0.572,3.648-1.715,4.61
			c-1.142,0.963-2.963,1.443-5.464,1.443h-1.034v5.416h-3.282V57.223z M127.107,66.396c0.623,0,1.157-0.061,1.596-0.178
			c0.438-0.116,0.787-0.313,1.055-0.586c0.268-0.272,0.463-0.624,0.588-1.055c0.125-0.43,0.188-0.959,0.188-1.584
			c0-1.233-0.254-2.115-0.764-2.639c-0.508-0.524-1.395-0.786-2.662-0.786c-0.217,0-0.46,0.017-0.726,0.047
			c-0.267,0.032-0.501,0.064-0.706,0.095v6.593c0.221,0.03,0.459,0.054,0.717,0.069C126.65,66.387,126.89,66.396,127.107,66.396"/>
		<path fill="#1D1D1B" d="M140.033,74.746c-0.767,0-1.57-0.069-2.414-0.211c-0.848-0.141-1.691-0.359-2.535-0.657l0.072-2.767
			c0.248,0.123,0.553,0.238,0.912,0.337c0.36,0.105,0.737,0.198,1.127,0.284c0.391,0.087,0.78,0.151,1.176,0.2
			c0.388,0.045,0.748,0.068,1.076,0.068c0.938,0,1.648-0.199,2.123-0.597c0.475-0.398,0.717-0.975,0.717-1.726
			c0-0.358-0.072-0.667-0.213-0.926c-0.14-0.26-0.35-0.483-0.622-0.681c-0.274-0.194-0.597-0.371-0.972-0.526
			c-0.377-0.157-0.798-0.321-1.268-0.493c-0.563-0.205-1.083-0.432-1.56-0.681c-0.477-0.249-0.896-0.571-1.255-0.962
			c-0.359-0.391-0.642-0.876-0.847-1.455c-0.201-0.579-0.303-1.305-0.303-2.183c0-0.751,0.13-1.431,0.386-2.041
			c0.258-0.608,0.626-1.125,1.102-1.548c0.477-0.423,1.061-0.744,1.748-0.974c0.69-0.225,1.469-0.339,2.347-0.339
			c0.657,0,1.314,0.046,1.972,0.141c0.658,0.094,1.336,0.25,2.038,0.469l-0.044,2.653c-0.643-0.174-1.303-0.312-1.984-0.412
			c-0.678-0.102-1.246-0.153-1.699-0.153c-0.83,0-1.461,0.191-1.9,0.575c-0.438,0.383-0.656,0.927-0.656,1.629
			c0,0.377,0.077,0.699,0.234,0.964c0.154,0.264,0.376,0.499,0.667,0.703c0.29,0.203,0.634,0.392,1.034,0.562
			c0.4,0.174,0.84,0.353,1.324,0.538c0.563,0.222,1.075,0.468,1.539,0.74c0.461,0.273,0.855,0.607,1.182,0.997
			c0.328,0.391,0.584,0.853,0.762,1.384c0.182,0.532,0.273,1.173,0.273,1.925c0,0.797-0.131,1.517-0.389,2.156
			c-0.258,0.643-0.627,1.186-1.104,1.632c-0.477,0.446-1.055,0.786-1.734,1.021C141.665,74.629,140.893,74.746,140.033,74.746"/>
		<path fill="#1D1D1B" d="M154.132,74.582c-1.017,0-1.83-0.333-2.439-0.996c-0.611-0.666-0.916-1.545-0.916-2.641
			c0-2.408,1.504-3.721,4.505-3.939l2.157-0.142v-0.398c0-0.483-0.029-0.885-0.094-1.197c-0.06-0.312-0.172-0.563-0.341-0.751
			c-0.163-0.188-0.386-0.315-0.667-0.386c-0.282-0.072-0.635-0.105-1.056-0.105c-0.171,0-0.402,0.01-0.692,0.033
			c-0.289,0.025-0.594,0.052-0.916,0.084c-0.32,0.032-0.633,0.065-0.936,0.105c-0.306,0.04-0.562,0.081-0.764,0.13l-0.213-2.349
			c0.674-0.123,1.36-0.225,2.055-0.303c0.695-0.078,1.348-0.117,1.957-0.117c1.705,0,2.945,0.316,3.719,0.949
			c0.775,0.632,1.16,1.653,1.16,3.061v8.843h-2.648l-0.259-1.524h-0.188c-0.406,0.454-0.904,0.841-1.501,1.162
			C155.462,74.423,154.822,74.582,154.132,74.582 M155.327,72.213c0.346,0,0.709-0.105,1.092-0.317
			c0.383-0.21,0.723-0.417,1.02-0.624v-2.438l-1.453,0.143c-0.737,0.077-1.255,0.245-1.561,0.504
			c-0.306,0.258-0.458,0.654-0.458,1.183c0,0.501,0.119,0.885,0.352,1.151C154.554,72.08,154.888,72.213,155.327,72.213"/>
		<path fill="#1D1D1B" d="M171.61,74.746c-0.767,0-1.571-0.069-2.416-0.211c-0.847-0.141-1.689-0.359-2.536-0.657l0.072-2.767
			c0.25,0.123,0.555,0.238,0.916,0.337c0.357,0.105,0.734,0.198,1.123,0.284c0.391,0.087,0.784,0.151,1.174,0.2
			c0.395,0.045,0.754,0.068,1.082,0.068c0.937,0,1.646-0.199,2.121-0.597c0.477-0.398,0.717-0.975,0.717-1.726
			c0-0.358-0.071-0.667-0.211-0.926c-0.143-0.26-0.35-0.483-0.623-0.681c-0.273-0.194-0.6-0.371-0.971-0.526
			c-0.377-0.157-0.8-0.321-1.269-0.493c-0.564-0.205-1.083-0.432-1.561-0.681c-0.477-0.249-0.893-0.571-1.254-0.962
			c-0.361-0.391-0.641-0.876-0.844-1.455c-0.206-0.579-0.305-1.305-0.305-2.183c0-0.751,0.128-1.431,0.385-2.041
			c0.256-0.608,0.625-1.125,1.102-1.548c0.479-0.423,1.061-0.744,1.749-0.974c0.688-0.225,1.472-0.339,2.347-0.339
			c0.654,0,1.314,0.046,1.971,0.141c0.654,0.094,1.339,0.25,2.039,0.469l-0.045,2.653c-0.643-0.174-1.303-0.312-1.983-0.412
			c-0.681-0.102-1.247-0.153-1.702-0.153c-0.826,0-1.46,0.191-1.898,0.575c-0.438,0.383-0.656,0.927-0.656,1.629
			c0,0.377,0.078,0.699,0.233,0.964c0.156,0.264,0.377,0.499,0.668,0.703c0.289,0.203,0.635,0.392,1.033,0.562
			c0.4,0.174,0.84,0.353,1.324,0.538c0.564,0.222,1.074,0.468,1.535,0.74c0.464,0.273,0.859,0.607,1.188,0.997
			c0.329,0.391,0.58,0.853,0.762,1.384c0.18,0.532,0.27,1.173,0.27,1.925c0,0.797-0.131,1.517-0.385,2.156
			c-0.26,0.643-0.628,1.186-1.105,1.632c-0.479,0.446-1.056,0.786-1.735,1.021C173.24,74.629,172.468,74.746,171.61,74.746"/>
		<path fill="#1D1D1B" d="M179.12,57.223c0.699-0.125,1.403-0.217,2.105-0.271c0.705-0.054,1.404-0.08,2.089-0.08
			c2.55,0,4.403,0.484,5.561,1.453c1.156,0.969,1.736,2.527,1.736,4.669c0,2.113-0.573,3.648-1.715,4.61
			c-1.141,0.963-2.963,1.443-5.464,1.443h-1.032v5.416h-3.281V57.223z M183.831,66.396c0.625,0,1.157-0.061,1.594-0.178
			c0.439-0.116,0.789-0.313,1.058-0.586c0.265-0.272,0.461-0.624,0.587-1.055c0.124-0.43,0.188-0.959,0.188-1.584
			c0-1.233-0.256-2.115-0.764-2.639c-0.506-0.524-1.394-0.786-2.662-0.786c-0.218,0-0.461,0.017-0.726,0.047
			c-0.267,0.032-0.501,0.064-0.704,0.095v6.593c0.219,0.03,0.457,0.054,0.715,0.069C183.373,66.387,183.614,66.396,183.831,66.396"
			/>
		<path fill="#1D1D1B" d="M196.194,79.628c-1.157,0-2.369-0.183-3.634-0.542l0.209-2.392c0.639,0.155,1.213,0.273,1.713,0.352
			c0.502,0.077,0.977,0.118,1.432,0.118c0.531,0,0.989-0.066,1.371-0.199c0.385-0.134,0.697-0.353,0.94-0.646
			c0.243-0.296,0.423-0.682,0.541-1.149c0.115-0.468,0.175-1.04,0.175-1.714v-0.634h-0.116c-0.721,0.939-1.729,1.409-3.027,1.409
			c-1.406,0-2.451-0.473-3.133-1.42c-0.68-0.946-1.021-2.397-1.021-4.352c0-2.252,0.493-3.962,1.479-5.125
			c0.986-1.165,2.433-1.747,4.341-1.747c0.705,0,1.418,0.055,2.146,0.164c0.725,0.109,1.545,0.288,2.45,0.539v10.487
			C202.059,77.345,200.106,79.628,196.194,79.628 M196.851,72.049c0.627,0,1.115-0.264,1.468-0.785
			c0.351-0.523,0.526-1.422,0.526-2.689v-4.548c-0.452-0.174-0.938-0.26-1.456-0.26c-0.435,0-0.812,0.076-1.124,0.224
			c-0.313,0.149-0.566,0.393-0.764,0.727c-0.195,0.337-0.335,0.778-0.422,1.326c-0.086,0.546-0.127,1.228-0.127,2.04
			c0,1.454,0.141,2.479,0.433,3.074C195.674,71.752,196.161,72.049,196.851,72.049"/>
		<path fill="#1D1D1B" d="M208.887,74.746c-0.767,0-1.573-0.069-2.417-0.211c-0.844-0.142-1.69-0.358-2.533-0.656l0.069-2.768
			c0.25,0.123,0.554,0.238,0.915,0.338c0.359,0.104,0.734,0.197,1.125,0.283c0.392,0.087,0.783,0.151,1.174,0.2
			c0.393,0.045,0.752,0.069,1.08,0.069c0.939,0,1.645-0.2,2.121-0.598c0.478-0.398,0.717-0.975,0.717-1.726
			c0-0.358-0.07-0.667-0.211-0.926c-0.141-0.26-0.348-0.483-0.622-0.681c-0.272-0.194-0.598-0.371-0.975-0.526
			c-0.374-0.157-0.794-0.321-1.266-0.493c-0.564-0.205-1.083-0.431-1.562-0.681c-0.477-0.249-0.895-0.571-1.254-0.962
			c-0.361-0.391-0.643-0.876-0.844-1.455c-0.207-0.578-0.307-1.305-0.307-2.183c0-0.75,0.13-1.431,0.387-2.04
			c0.26-0.609,0.625-1.126,1.105-1.549c0.475-0.423,1.057-0.744,1.746-0.974c0.688-0.225,1.469-0.339,2.348-0.339
			c0.652,0,1.313,0.046,1.971,0.141c0.656,0.094,1.336,0.25,2.039,0.469l-0.048,2.653c-0.642-0.174-1.302-0.312-1.981-0.412
			c-0.68-0.102-1.246-0.153-1.701-0.153c-0.83,0-1.463,0.191-1.899,0.575c-0.437,0.383-0.656,0.927-0.656,1.629
			c0,0.377,0.079,0.699,0.233,0.964c0.156,0.264,0.377,0.499,0.67,0.703c0.289,0.203,0.632,0.392,1.032,0.562
			c0.399,0.174,0.84,0.353,1.323,0.538c0.564,0.222,1.076,0.468,1.539,0.74c0.459,0.274,0.854,0.607,1.182,0.997
			c0.331,0.391,0.585,0.853,0.764,1.384c0.181,0.532,0.271,1.173,0.271,1.925c0,0.797-0.133,1.517-0.39,2.156
			c-0.255,0.643-0.622,1.186-1.1,1.632c-0.481,0.446-1.058,0.786-1.735,1.02C210.515,74.629,209.745,74.746,208.887,74.746
			 M205.788,51.992l3.613,1.688l3.613-1.688v2.253l-3.613,1.688l-3.613-1.688V51.992z"/>
		<polygon fill="#1D1D1B" points="81.572,85.98 84.858,85.98 84.858,93.085 86.641,93.085 90.323,85.98 93.983,85.98 89.833,93.792 
			88.683,94.423 88.683,94.563 89.856,95.174 94.453,103.337 90.794,103.337 86.547,95.876 84.858,95.876 84.858,103.337 
			81.572,103.337 		"/>
		<path fill="#1D1D1B" d="M101.441,97.262c-0.168,0.017-0.342,0.024-0.514,0.024h-0.539h-0.283h-0.387
			c-0.132,0-0.262-0.004-0.387-0.013c-0.123-0.008-0.219-0.012-0.28-0.012v6.075h-3.287V86.094c1.285-0.233,2.683-0.349,4.202-0.349
			c2.549,0,4.4,0.458,5.56,1.382c1.157,0.922,1.736,2.409,1.736,4.457c0,1.298-0.235,2.362-0.706,3.191
			c-0.467,0.83-1.195,1.456-2.18,1.879l3.307,6.684h-3.4L101.441,97.262z M100.482,94.728c0.625,0,1.156-0.055,1.596-0.164
			c0.438-0.107,0.787-0.29,1.055-0.54c0.267-0.245,0.459-0.574,0.588-0.973c0.125-0.398,0.187-0.886,0.187-1.467
			c0-1.142-0.254-1.948-0.764-2.429c-0.508-0.474-1.396-0.713-2.661-0.713c-0.172,0-0.396,0.015-0.67,0.045
			c-0.272,0.032-0.528,0.063-0.761,0.094v6.051c0.218,0.034,0.462,0.056,0.726,0.071C100.044,94.721,100.277,94.728,100.482,94.728"
			/>
		<path fill="#1D1D1B" d="M115.681,103.573c-2.313,0-4.036-0.729-5.16-2.194c-1.125-1.462-1.689-3.695-1.689-6.698
			c0-3.017,0.564-5.264,1.689-6.729c1.124-1.475,2.848-2.206,5.16-2.206c2.334,0,4.062,0.731,5.196,2.206
			c1.134,1.466,1.702,3.713,1.702,6.729c0,3.02-0.564,5.257-1.69,6.708C119.763,102.846,118.029,103.573,115.681,103.573
			 M115.681,100.828c0.643,0,1.187-0.109,1.631-0.33c0.448-0.216,0.809-0.572,1.092-1.064c0.281-0.493,0.483-1.13,0.609-1.9
			c0.124-0.777,0.188-1.726,0.188-2.853c0-1.125-0.063-2.083-0.188-2.874c-0.126-0.789-0.328-1.432-0.609-1.922
			c-0.283-0.493-0.644-0.851-1.092-1.082c-0.443-0.225-0.988-0.338-1.631-0.338c-0.624,0-1.158,0.113-1.605,0.338
			c-0.447,0.231-0.811,0.589-1.09,1.082c-0.283,0.49-0.484,1.133-0.611,1.922c-0.125,0.791-0.188,1.749-0.188,2.874
			c0,1.112,0.063,2.059,0.188,2.838c0.127,0.783,0.328,1.422,0.611,1.915c0.279,0.492,0.641,0.849,1.078,1.064
			C114.502,100.719,115.04,100.828,115.681,100.828"/>
		<polygon fill="#1D1D1B" points="124.784,85.98 129.454,85.98 132.667,95.595 133.253,98.343 133.417,98.343 134.027,95.595 
			137.242,85.98 141.935,85.98 141.935,103.337 138.837,103.337 138.837,90.223 138.695,90.223 137.923,93.014 134.732,102.469 
			131.891,102.469 128.725,93.014 127.929,90.223 127.812,90.223 127.812,103.337 124.784,103.337 		"/>
		<path fill="#1D1D1B" d="M144.771,85.98h10.137v2.77h-6.854v4.479h6.1v2.767h-6.1v4.574h7.063v2.769h-10.346V85.98z
			 M146.484,80.864l3.613,1.688l3.611-1.688v2.252l-3.611,1.689l-3.613-1.689V80.864z"/>
		<path fill="#1D1D1B" d="M162.951,97.262c-0.172,0.017-0.344,0.024-0.516,0.024h-0.539h-0.283h-0.385
			c-0.133,0-0.262-0.004-0.387-0.013c-0.126-0.008-0.22-0.012-0.283-0.012v6.075h-3.285V86.094c1.285-0.233,2.685-0.349,4.2-0.349
			c2.55,0,4.401,0.458,5.56,1.382c1.158,0.922,1.736,2.409,1.736,4.457c0,1.298-0.232,2.362-0.703,3.191
			c-0.469,0.83-1.197,1.456-2.182,1.879l3.308,6.684h-3.4L162.951,97.262z M159.431,80.864l3.615,1.688l3.611-1.688v2.252
			l-3.611,1.689l-3.615-1.689V80.864z M161.99,94.728c0.625,0,1.157-0.055,1.595-0.164c0.438-0.107,0.789-0.29,1.057-0.54
			c0.265-0.245,0.462-0.574,0.587-0.973c0.125-0.398,0.189-0.886,0.189-1.467c0-1.142-0.256-1.948-0.766-2.429
			c-0.506-0.474-1.396-0.713-2.662-0.713c-0.174,0-0.395,0.015-0.668,0.045c-0.274,0.032-0.527,0.063-0.764,0.094v6.051
			c0.219,0.034,0.463,0.056,0.726,0.071C161.551,94.721,161.786,94.728,161.99,94.728"/>
		<path fill="#1D1D1B" d="M170.974,85.98h3.283v17.357h-3.283V85.98z M171.324,84.665l1.619-3.872h3.311l-2.581,4.06L171.324,84.665
			z"/>
		<path fill="#1D1D1B" d="M176.253,100.383l7.106-11.401V88.77h-6.804v-2.79h10.488v2.979l-7.134,11.402v0.186h7.44v2.791h-11.098
			V100.383z M178.527,80.864l3.613,1.688l3.613-1.688v2.252l-3.613,1.689l-3.613-1.689V80.864z"/>
	</g>
</g>
</svg>
