<?xml version="1.0" encoding="utf-8"?>
<!-- Generator: Adobe Illustrator 17.0.0, SVG Export Plug-In . SVG Version: 6.00 Build 0)  -->
<!DOCTYPE svg PUBLIC "-//W3C//DTD SVG 1.1//EN" "http://www.w3.org/Graphics/SVG/1.1/DTD/svg11.dtd">
<svg version="1.1" id="Layer_2" xmlns="http://www.w3.org/2000/svg" xmlns:xlink="http://www.w3.org/1999/xlink" x="0px" y="0px"
	 width="27.412px" height="26.707px" viewBox="0 0 27.412 26.707" enable-background="new 0 0 27.412 26.707" xml:space="preserve">
<title>Telefon</title>
<path fill="currentColor" d="M20.778,17.019c-1.742-0.41-3.968-1.472-4.777-2.797c-0.449-0.738-0.496-1.57-0.133-2.281
	c0.02-0.039,0.055-0.094,0.082-0.14c-0.019-0.157,0.016-0.364,0.129-0.633c0.008-0.02,0.008-0.024,0.016-0.031H7.142
	c0.004,0.007,0.004,0.007,0.011,0.019c0,0,0,0,0,0.004c0.2,0.312,0.375,0.594,0.469,0.773c0.371,0.719,0.32,1.551-0.129,2.289
	c-0.804,1.325-3.035,2.391-4.777,2.797l-0.481,8.078c-0.05,0.883,0.528,1.61,1.289,1.61H19.97c0.761,0,1.343-0.727,1.289-1.61
	L20.778,17.019z M9.06,22.582H7.513c-0.282,0-0.512-0.231-0.512-0.516s0.227-0.515,0.512-0.515H9.06c0.281,0,0.515,0.23,0.515,0.515
	S9.341,22.582,9.06,22.582L9.06,22.582z M9.06,20.617H7.513c-0.282,0-0.512-0.23-0.512-0.516c0-0.281,0.227-0.511,0.512-0.511H9.06
	c0.281,0,0.515,0.226,0.515,0.511C9.575,20.387,9.341,20.617,9.06,20.617L9.06,20.617z M9.06,18.656H7.513
	c-0.282,0-0.512-0.23-0.512-0.516c0-0.285,0.227-0.515,0.512-0.515H9.06c0.281,0,0.515,0.23,0.515,0.515
	C9.575,18.426,9.341,18.656,9.06,18.656L9.06,18.656z M12.521,22.582h-1.547c-0.282,0-0.516-0.231-0.516-0.516
	s0.231-0.515,0.516-0.515h1.547c0.285,0,0.515,0.23,0.515,0.515S12.806,22.582,12.521,22.582L12.521,22.582z M12.521,20.617h-1.547
	c-0.282,0-0.516-0.23-0.516-0.516c0-0.281,0.231-0.511,0.516-0.511h1.547c0.285,0,0.515,0.226,0.515,0.511
	C13.036,20.387,12.806,20.617,12.521,20.617L12.521,20.617z M12.521,18.656h-1.547c-0.282,0-0.516-0.23-0.516-0.516
	c0-0.285,0.231-0.515,0.516-0.515h1.547c0.285,0,0.515,0.23,0.515,0.515C13.036,18.426,12.806,18.656,12.521,18.656L12.521,18.656z
	 M15.981,22.582h-1.542c-0.286,0-0.516-0.231-0.516-0.516s0.23-0.515,0.516-0.515h1.542c0.286,0,0.516,0.23,0.516,0.515
	S16.267,22.582,15.981,22.582L15.981,22.582z M15.981,20.617h-1.542c-0.286,0-0.516-0.23-0.516-0.516
	c0-0.281,0.23-0.511,0.516-0.511h1.542c0.286,0,0.516,0.226,0.516,0.511C16.497,20.387,16.267,20.617,15.981,20.617L15.981,20.617z
	 M15.981,18.656h-1.542c-0.286,0-0.516-0.23-0.516-0.516c0-0.285,0.23-0.515,0.516-0.515h1.542c0.286,0,0.516,0.23,0.516,0.515
	C16.497,18.426,16.267,18.656,15.981,18.656L15.981,18.656z M22.087,7.762c0.008,0.14,0.039,0.285,0.016,0.425
	c-0.129,0.836-0.567,1.606-0.832,2.414c-0.344,1.028-5.559,0.246-5.235-1.093c0.125-0.496,0.731-1.934,0.684-2.438
	c-0.047-0.453-0.711-0.656-1.25-0.57c-1.438,0.222-3.215,0.762-4.711,1.133c-0.039,0.011-0.082,0.019-0.125,0.031
	c-0.043,0.008-0.082,0.019-0.125,0.031V7.691c-1.5,0.352-3.324,0.684-4.707,1.137C5.274,9,4.782,9.48,4.946,9.906
	c0.188,0.473,1.383,1.473,1.719,1.859c0.902,1.043-3.387,4.114-4.16,3.356c-0.606-0.594-1.344-1.082-1.844-1.766
	c-0.082-0.117-0.117-0.258-0.18-0.386c-1.449-2.95,0.473-6.774,4.442-8.075C6.439,4.398,7.97,3.953,9.509,3.551V3.543
	c0.043-0.008,0.082-0.016,0.125-0.024C9.677,3.508,9.72,3.492,9.759,3.484l0.004,0.008c1.554-0.348,3.121-0.648,4.695-0.898
	C18.583,1.945,22.036,4.476,22.087,7.762L22.087,7.762z M26.61,11.187l-1.101-0.519c1.691-3.586,0.148-7.879-3.438-9.571L22.587,0
	C26.782,1.976,28.587,6.996,26.61,11.187L26.61,11.187z M24.712,10.293l-1.098-0.52c1.196-2.539,0.106-5.578-2.437-6.777
	l0.515-1.098C24.841,3.383,26.192,7.148,24.712,10.293L24.712,10.293z M24.712,10.293"/>
</svg>
