<?xml version="1.0" encoding="utf-8"?>
<!-- Generator: Adobe Illustrator 17.0.0, SVG Export Plug-In . SVG Version: 6.00 Build 0)  -->
<!DOCTYPE svg PUBLIC "-//W3C//DTD SVG 1.1//EN" "http://www.w3.org/Graphics/SVG/1.1/DTD/svg11.dtd">
<svg version="1.1" id="Layer_2" xmlns="http://www.w3.org/2000/svg" xmlns:xlink="http://www.w3.org/1999/xlink" x="0px" y="0px"
	 width="28.902px" height="24px" viewBox="0 0 28.902 24" enable-background="new 0 0 28.902 24" xml:space="preserve">
<path fill="currentColor" d="M24.258,3.195H1.449C0.648,3.195,0,3.843,0,4.644v17.742c0,0.797,0.648,1.45,1.449,1.45h22.809
	c0.801,0,1.449-0.653,1.449-1.45V4.644C25.703,3.843,25.059,3.195,24.258,3.195L24.258,3.195z M22.809,6.093v13.059l-3.313-4.023
	c-0.121-0.145-0.336-0.172-0.492-0.059l-3.852,2.812l-6.617-6.437c-0.078-0.074-0.183-0.106-0.289-0.102
	c-0.105,0.012-0.199,0.067-0.262,0.153l-5.086,7.281V6.093H22.809z M14.121,11.523c0-1.297,1.055-2.355,2.352-2.355
	c1.297,0,2.351,1.058,2.351,2.355c0,1.297-1.054,2.352-2.351,2.352C15.176,13.875,14.121,12.82,14.121,11.523L14.121,11.523z
	 M27.816,18.582c-0.597,0-1.086-0.485-1.086-1.086V2.168H4.164c-0.598,0-1.086-0.485-1.086-1.082C3.078,0.484,3.566,0,4.164,0
	h23.652c0.602,0,1.086,0.484,1.086,1.086V17.5C28.902,18.097,28.418,18.582,27.816,18.582L27.816,18.582z M27.816,18.582"/>
</svg>
