<?xml version="1.0" encoding="utf-8"?>
<!-- Generator: Adobe Illustrator 17.0.0, SVG Export Plug-In . SVG Version: 6.00 Build 0)  -->
<!DOCTYPE svg PUBLIC "-//W3C//DTD SVG 1.1//EN" "http://www.w3.org/Graphics/SVG/1.1/DTD/svg11.dtd">
<svg version="1.1" id="Layer_2" xmlns="http://www.w3.org/2000/svg" xmlns:xlink="http://www.w3.org/1999/xlink" x="0px" y="0px"
	 width="24.941px" height="21.973px" viewBox="0 0 24.941 21.973" enable-background="new 0 0 24.941 21.973" xml:space="preserve">
<path fill="currentColor" d="M24.625,3.942h-7.48V3.094h-1.981v0.848H7.559v1.019h0.503v2.243L6.898,6.653H5.16L3.98,8.02L2.84,6.653L0.332,7.118
	l-0.16,5.558h1.062l0.059,1.156h0.16v6.727H1.242L0,20.829v1.144h1.059l1.23-0.199l0.012,0.199h1.367v-6.918h0.777v6.918h1.367
	l0.012-0.199l1.235,0.199h1.054v-1.144l-1.242-0.266H6.66v-6.731h0.195l0.254-5.121l0.953,0.43v5.887h7.309v1.875l-4.035,4.551
	h1.449l2.723-3.079v3.079h0.836v-3.075l2.718,3.075h1.473l-4.058-4.551v-1.875h8.148V4.961h0.316V3.942H24.625z M23.91,14.278H8.777
	V9.465l2.973,1.348l-0.012-1.856l-2.961-1.41V4.961H23.91V14.278z M23.91,14.278"/>
<path fill="currentColor" d="M16.273,13.532c0.957,0,1.832-0.368,2.489-0.969l-1.532-1.586c-0.257,0.219-0.593,0.352-0.957,0.352
	c-0.82,0-1.488-0.665-1.488-1.485c0-0.777,0.602-1.414,1.363-1.48V6.161c-1.976,0.062-3.566,1.691-3.566,3.683
	C12.582,11.879,14.238,13.532,16.273,13.532L16.273,13.532z M16.273,13.532"/>
<path fill="currentColor" d="M17.711,11.09l1.527,1.59c0.707-0.648,1.16-1.566,1.196-2.59l-2.207,0.008C18.191,10.496,17.996,10.844,17.711,11.09
	L17.711,11.09z M17.711,11.09"/>
<path fill="currentColor" d="M17.98,9.707c0,0.047-0.003,0.094-0.007,0.141L20.18,9.84c0-0.047,0.004-0.09,0.004-0.133c0-2.035-1.657-3.687-3.688-3.687
	c-0.043,0-0.086,0-0.125,0.004v2.207c0.039-0.004,0.082-0.008,0.125-0.008C17.312,8.223,17.98,8.887,17.98,9.707L17.98,9.707z
	 M17.98,9.707"/>
<rect fill="currentColor" x="21.383" y="10.176" width="1.848" height="0.449"/>
<rect fill="currentColor" x="21.383" y="10.934" width="1.848" height="0.453"/>
<rect fill="currentColor" x="21.383" y="11.719" width="1.848" height="0.449"/>
<rect fill="currentColor" x="21.383" y="12.52" width="1.848" height="0.449"/>
<rect fill="currentColor" x="21.383" y="13.309" width="1.848" height="0.449"/>
<path fill="currentColor" d="M7.125,3.094c0,1.707-1.383,3.094-3.09,3.094c-1.711,0-3.094-1.387-3.094-3.094C0.941,1.383,2.324,0,4.035,0
	C5.742,0,7.125,1.383,7.125,3.094L7.125,3.094z M7.125,3.094"/>
</svg>
