<?xml version="1.0" encoding="utf-8"?>
<!-- Generator: Adobe Illustrator 17.0.0, SVG Export Plug-In . SVG Version: 6.00 Build 0)  -->
<!DOCTYPE svg PUBLIC "-//W3C//DTD SVG 1.1//EN" "http://www.w3.org/Graphics/SVG/1.1/DTD/svg11.dtd">
<svg version="1.1" id="Layer_2" xmlns="http://www.w3.org/2000/svg" xmlns:xlink="http://www.w3.org/1999/xlink" x="0px" y="0px"
	 width="11.749px" height="12px" viewBox="0 0 11.749 12" enable-background="new 0 0 11.749 12" xml:space="preserve">
<path fill="currentColor" d="M0.183,3.523c0-0.875,0.707-1.582,1.582-1.582c0.875,0,1.578,0.707,1.578,1.582
	c0,0.872-0.703,1.579-1.578,1.579C0.89,5.102,0.183,4.395,0.183,3.523L0.183,3.523z M7.183,5C6.929,4.848,6.601,4.93,6.444,5.18
	L5.39,6.91L3.905,6.078c-0.672-0.41-0.996-0.605-1.988-0.605H1.612c-1.925,0.226-1.59,1.769-1.59,1.769L0.253,12l3.391-0.039
	L3.511,7.242l1.808,0.856c0.082,0.047,0.172,0.07,0.262,0.07c0.18,0,0.356-0.094,0.457-0.258l1.324-2.172
	C7.515,5.484,7.437,5.156,7.183,5L7.183,5z M2.901,4.836C2.784,4.938,2.655,5.023,2.515,5.094V5.34
	c0.14,0.019,0.269,0.039,0.386,0.074V4.836z M11.749,0H2.515v1.953c0.14,0.067,0.269,0.152,0.386,0.254v-1.82h8.465v5.789H7.288
	L7.054,6.562h4.695V0z M5.413,6.562l0.234-0.386H4.413l0.691,0.386H5.413z M8.675,2.656L8.487,2.551L7.194,4.805L7.382,4.91
	L8.675,2.656z M8.675,2.656"/>
</svg>
