<?xml version="1.0" encoding="utf-8"?>
<!-- Generator: Adobe Illustrator 18.1.1, SVG Export Plug-In . SVG Version: 6.00 Build 0)  -->
<svg version="1.1" id="Vrstva_1" xmlns="http://www.w3.org/2000/svg" xmlns:xlink="http://www.w3.org/1999/xlink" x="0px" y="0px"
	 viewBox="0 0 155 44.688" enable-background="new 0 0 155 44.688" xml:space="preserve">
<rect x="0" y="0" fill="#F1562C" width="155" height="44.688"/>
<circle fill="#FFFFFF" cx="27.884" cy="22.344" r="18.556"/>
<g>
	<g>
		<defs>
			<rect id="SVGID_1_" x="16.007" y="10.155" width="27.446" height="27.45"/>
		</defs>
		<clipPath id="SVGID_2_">
			<use xlink:href="#SVGID_1_"  overflow="visible"/>
		</clipPath>
		<path clip-path="url(#SVGID_2_)" d="M43.106,21.059l-4.489-4.489c-0.449-0.449-1.993-0.449-1.993,0.486v10.277
			c0,0.938,1.544,0.938,1.993,0.486l4.489-4.486C43.558,22.882,43.558,21.508,43.106,21.059L43.106,21.059z M43.106,21.059"/>
		<path clip-path="url(#SVGID_2_)" d="M29.724,10.155H16.003v20.582l10.291,6.86v-3.43h3.43c1.893,0,3.43-1.538,3.43-3.43V13.586
			C33.154,11.69,31.616,10.155,29.724,10.155L29.724,10.155z M29.723,30.737h-3.43V17.016l-5.145-3.43h8.576V30.737z M29.723,30.737
			"/>
	</g>
</g>
<g>
	<path d="M52.131,15.878h1.787v6.782h-1.787V15.878z"/>
	<path d="M54.835,15.878h1.466l1.934,2.952l0.339,0.705h0.101v-3.657h1.558v6.782h-1.457l-1.961-2.997l-0.321-0.687h-0.101v3.684
		h-1.558V15.878z"/>
	<path d="M61.149,15.878h4.225v1.485h-2.438v1.347h2.154v1.485h-2.154v2.465h-1.787V15.878z"/>
	<path d="M68.701,22.751c-0.984,0-1.714-0.285-2.19-0.857c-0.477-0.572-0.715-1.443-0.715-2.617c0-1.179,0.239-2.056,0.715-2.63
		c0.477-0.575,1.207-0.862,2.19-0.862c1.002,0,1.74,0.284,2.214,0.852c0.473,0.568,0.71,1.448,0.71,2.64
		c0,1.185-0.239,2.06-0.715,2.625C70.433,22.469,69.697,22.751,68.701,22.751z M68.701,21.294c0.208,0,0.38-0.033,0.518-0.101
		c0.138-0.067,0.249-0.178,0.335-0.334c0.085-0.156,0.147-0.362,0.183-0.619c0.037-0.256,0.055-0.577,0.055-0.962
		c0-0.391-0.017-0.718-0.05-0.981c-0.034-0.263-0.093-0.472-0.179-0.628c-0.086-0.156-0.199-0.266-0.339-0.33
		c-0.141-0.064-0.315-0.097-0.523-0.097c-0.201,0-0.371,0.034-0.509,0.101c-0.137,0.067-0.247,0.18-0.33,0.339
		c-0.082,0.159-0.142,0.368-0.179,0.628c-0.037,0.259-0.055,0.582-0.055,0.967c0,0.379,0.018,0.697,0.055,0.953
		c0.037,0.256,0.096,0.464,0.179,0.623c0.083,0.159,0.193,0.272,0.33,0.339C68.329,21.261,68.499,21.294,68.701,21.294z"/>
	<path d="M74.695,20.415h-0.587v2.245h-1.787v-6.736c0.262-0.049,0.55-0.084,0.861-0.105c0.312-0.021,0.636-0.032,0.971-0.032
		c0.556,0,1.034,0.044,1.434,0.133c0.4,0.089,0.729,0.229,0.985,0.421c0.257,0.192,0.446,0.438,0.568,0.738
		c0.122,0.3,0.184,0.657,0.184,1.073c0,0.947-0.354,1.594-1.063,1.943l1.292,2.566h-1.842L74.695,20.415z M74.484,19.049
		c0.196,0,0.359-0.014,0.49-0.042c0.131-0.027,0.235-0.076,0.312-0.147c0.077-0.07,0.13-0.162,0.161-0.275
		c0.03-0.113,0.046-0.258,0.046-0.435c0-0.177-0.017-0.325-0.051-0.445c-0.033-0.119-0.09-0.213-0.169-0.284
		c-0.08-0.071-0.188-0.119-0.325-0.147c-0.138-0.027-0.31-0.042-0.518-0.042c-0.031,0-0.084,0.003-0.161,0.009
		c-0.076,0.007-0.13,0.013-0.16,0.019v1.769c0.042,0.006,0.104,0.011,0.183,0.014C74.37,19.047,74.435,19.049,74.484,19.049z"/>
	<path d="M78.012,15.878h2.575l0.862,2.942l0.193,1.192h0.073l0.192-1.192l0.871-2.942h2.575v6.782h-1.668v-4.674H83.63
		l-0.293,1.201l-0.935,3.107h-1.475l-0.917-3.107l-0.312-1.201h-0.055v4.674h-1.631V15.878z"/>
	<path d="M85.774,22.596l1.622-6.718h2.731l1.622,6.718v0.064h-1.677l-0.348-1.457h-1.934l-0.339,1.457h-1.677V22.596z
		 M89.395,19.782l-0.357-1.613l-0.22-0.99h-0.11l-0.22,0.99l-0.367,1.613H89.395z"/>
	<path d="M94.61,22.742c-0.911,0-1.602-0.283-2.076-0.848c-0.474-0.565-0.711-1.44-0.711-2.625c0-1.18,0.24-2.054,0.72-2.621
		c0.48-0.569,1.166-0.853,2.058-0.853c0.452,0,0.926,0.055,1.42,0.165v1.402c-0.208-0.037-0.411-0.064-0.609-0.082
		c-0.199-0.018-0.378-0.027-0.536-0.027c-0.226,0-0.417,0.026-0.573,0.078c-0.156,0.052-0.281,0.153-0.376,0.302
		c-0.095,0.15-0.164,0.356-0.206,0.618c-0.043,0.263-0.064,0.605-0.064,1.027c0,0.421,0.022,0.764,0.064,1.027
		c0.043,0.263,0.111,0.466,0.206,0.609c0.095,0.144,0.22,0.242,0.376,0.294c0.156,0.052,0.347,0.078,0.573,0.078
		c0.214,0,0.414-0.011,0.6-0.033c0.187-0.021,0.368-0.056,0.545-0.105v1.366c-0.067,0.031-0.151,0.059-0.252,0.087
		c-0.101,0.027-0.216,0.052-0.344,0.074c-0.128,0.021-0.263,0.038-0.403,0.05C94.881,22.736,94.744,22.742,94.61,22.742z
		 M92.703,13.669l1.567,0.651l1.567-0.651v1.137l-1.558,0.651l-1.576-0.651V13.669z"/>
	<path d="M96.699,15.878h1.466l1.934,2.952l0.339,0.705h0.101v-3.657h1.558v6.782h-1.457l-1.961-2.997l-0.321-0.687h-0.101v3.684
		h-1.558V15.878z"/>
	<path d="M103.014,15.878h1.787v6.782h-1.787V15.878z M103.224,15.328l0.587-1.723h1.778l-1.127,1.815L103.224,15.328z"/>
	<path d="M109.081,22.77c-0.324,0-0.651-0.029-0.981-0.087c-0.33-0.058-0.69-0.152-1.081-0.279v-1.494
		c0.11,0.055,0.238,0.106,0.385,0.151c0.147,0.046,0.296,0.085,0.449,0.12c0.153,0.033,0.306,0.061,0.458,0.082
		c0.153,0.021,0.293,0.032,0.421,0.032c0.599,0,0.898-0.211,0.898-0.632c0-0.116-0.027-0.211-0.082-0.285
		c-0.055-0.073-0.132-0.134-0.229-0.183c-0.097-0.049-0.209-0.09-0.335-0.124c-0.125-0.033-0.258-0.068-0.398-0.106
		c-0.177-0.048-0.358-0.116-0.541-0.201c-0.183-0.086-0.348-0.208-0.495-0.367c-0.147-0.159-0.266-0.369-0.358-0.632
		c-0.092-0.263-0.137-0.598-0.137-1.008c0-0.617,0.206-1.096,0.618-1.439c0.413-0.342,0.991-0.513,1.737-0.513
		c0.275,0,0.551,0.021,0.829,0.064c0.278,0.043,0.564,0.11,0.857,0.201v1.42c-0.116-0.036-0.243-0.07-0.38-0.1
		c-0.138-0.031-0.277-0.056-0.417-0.078c-0.141-0.021-0.275-0.04-0.403-0.055c-0.128-0.015-0.239-0.023-0.33-0.023
		c-0.483,0-0.724,0.174-0.724,0.522c0,0.135,0.035,0.245,0.105,0.33c0.07,0.086,0.162,0.159,0.275,0.22
		c0.113,0.061,0.243,0.116,0.39,0.165c0.147,0.049,0.3,0.104,0.459,0.165c0.165,0.068,0.328,0.147,0.49,0.239
		c0.162,0.092,0.305,0.212,0.431,0.363c0.126,0.15,0.227,0.334,0.307,0.554c0.079,0.22,0.119,0.489,0.119,0.806
		c0,0.336-0.055,0.639-0.165,0.908c-0.11,0.269-0.266,0.496-0.467,0.683c-0.202,0.186-0.447,0.33-0.733,0.43
		C109.765,22.719,109.441,22.77,109.081,22.77z"/>
	<path d="M113.69,20.332l-2.337-4.455h2.025l1.063,2.365l0.11,0.449h0.092l0.119-0.449l1.072-2.365h1.98l-2.328,4.455v2.328h-1.796
		V20.332z"/>
	<path d="M119.785,22.77c-0.324,0-0.651-0.029-0.981-0.087c-0.33-0.058-0.691-0.152-1.081-0.279v-1.494
		c0.11,0.055,0.238,0.106,0.385,0.151c0.146,0.046,0.296,0.085,0.449,0.12c0.153,0.033,0.306,0.061,0.459,0.082
		c0.152,0.021,0.293,0.032,0.421,0.032c0.599,0,0.898-0.211,0.898-0.632c0-0.116-0.027-0.211-0.083-0.285
		c-0.055-0.073-0.131-0.134-0.229-0.183c-0.098-0.049-0.209-0.09-0.335-0.124c-0.125-0.033-0.258-0.068-0.399-0.106
		c-0.177-0.048-0.357-0.116-0.541-0.201c-0.183-0.086-0.348-0.208-0.495-0.367c-0.146-0.159-0.266-0.369-0.357-0.632
		c-0.092-0.263-0.138-0.598-0.138-1.008c0-0.617,0.206-1.096,0.619-1.439c0.412-0.342,0.991-0.513,1.736-0.513
		c0.275,0,0.552,0.021,0.83,0.064c0.278,0.043,0.564,0.11,0.857,0.201v1.42c-0.116-0.036-0.243-0.07-0.38-0.1
		c-0.138-0.031-0.277-0.056-0.417-0.078c-0.141-0.021-0.275-0.04-0.403-0.055c-0.128-0.015-0.238-0.023-0.33-0.023
		c-0.483,0-0.724,0.174-0.724,0.522c0,0.135,0.035,0.245,0.106,0.33c0.07,0.086,0.162,0.159,0.275,0.22
		c0.113,0.061,0.243,0.116,0.39,0.165c0.147,0.049,0.299,0.104,0.459,0.165c0.165,0.068,0.328,0.147,0.49,0.239
		c0.162,0.092,0.305,0.212,0.431,0.363c0.125,0.15,0.228,0.334,0.307,0.554c0.079,0.22,0.119,0.489,0.119,0.806
		c0,0.336-0.055,0.639-0.165,0.908c-0.11,0.269-0.266,0.496-0.467,0.683c-0.202,0.186-0.446,0.33-0.733,0.43
		C120.469,22.719,120.145,22.77,119.785,22.77z"/>
	<path d="M123.918,17.399h-1.494v-1.521h4.784v1.521h-1.503v5.261h-1.787V17.399z"/>
	<path d="M127.823,15.878h4.316v1.485h-2.529v1.164h2.245v1.485h-2.245v1.164h2.612v1.484h-4.399V15.878z M129.353,15.328
		l0.587-1.723h1.778l-1.127,1.815L129.353,15.328z"/>
	<path d="M132.918,15.878h2.575l0.862,2.942l0.192,1.192h0.073l0.192-1.192l0.871-2.942h2.575v6.782h-1.668v-4.674h-0.055
		l-0.294,1.201l-0.935,3.107h-1.475l-0.916-3.107l-0.312-1.201h-0.055v4.674h-1.631V15.878z"/>
	<path d="M52.49,30.885c0.084,0.231,0.126,0.503,0.126,0.817c0,0.251-0.038,0.509-0.114,0.774c-0.076,0.265-0.174,0.488-0.295,0.672
		l-0.275-0.063c0.073-0.194,0.132-0.402,0.177-0.625c0.044-0.223,0.067-0.433,0.067-0.633c0-0.136-0.013-0.276-0.039-0.42
		c-0.026-0.144-0.068-0.292-0.125-0.444L52.49,30.885z M54.006,30.885c0.084,0.231,0.125,0.503,0.125,0.817
		c0,0.251-0.038,0.509-0.114,0.774c-0.076,0.265-0.174,0.488-0.295,0.672l-0.275-0.063c0.073-0.194,0.132-0.402,0.177-0.625
		c0.044-0.223,0.067-0.433,0.067-0.633c0-0.136-0.013-0.276-0.04-0.42c-0.026-0.144-0.068-0.292-0.125-0.444L54.006,30.885z"/>
	<path d="M55.161,26.274h3.032v0.519h-2.459v2.098h2.2V29.4h-2.2v2.168h2.529v0.519h-3.103V26.274z"/>
	<path d="M59.12,26.274h0.573v5.295h1.964v0.519H59.12V26.274z"/>
	<path d="M62.332,26.274h3.032v0.519h-2.459v2.098h2.2V29.4h-2.2v2.168h2.529v0.519h-3.103V26.274z"/>
	<path d="M66.291,26.274h0.574v2.592h0.66l1.752-2.592h0.675l-1.767,2.624l-0.251,0.205v0.039L68.2,29.33l1.909,2.757h-0.668
		l-1.886-2.695h-0.691v2.695h-0.574V26.274z"/>
	<path d="M71.688,26.8h-1.453v-0.526h3.512V26.8h-1.469v5.287h-0.589V26.8z"/>
	<path d="M76.182,29.91c-0.089,0.011-0.179,0.019-0.271,0.024c-0.092,0.005-0.187,0.008-0.287,0.008
		c-0.094,0-0.198-0.001-0.31-0.004c-0.112-0.002-0.216-0.009-0.31-0.019v2.168H74.43v-5.774c0.204-0.042,0.407-0.073,0.609-0.094
		c0.202-0.021,0.402-0.031,0.601-0.031c0.738,0,1.275,0.149,1.61,0.448c0.335,0.299,0.503,0.778,0.503,1.438
		c0,0.461-0.084,0.83-0.251,1.107c-0.168,0.278-0.43,0.48-0.786,0.606l1.116,2.301h-0.613L76.182,29.91z M75.679,29.455
		c0.524,0,0.902-0.109,1.135-0.326c0.233-0.217,0.35-0.57,0.35-1.057c0-0.482-0.113-0.832-0.338-1.049
		c-0.225-0.217-0.589-0.326-1.092-0.326c-0.089,0-0.196,0.006-0.322,0.016c-0.126,0.011-0.262,0.026-0.409,0.047v2.647
		C75.254,29.439,75.479,29.455,75.679,29.455z"/>
	<path d="M80.478,32.165c-1.372,0-2.058-0.992-2.058-2.977c0-1.011,0.169-1.762,0.507-2.255c0.338-0.492,0.855-0.738,1.551-0.738
		c0.702,0,1.223,0.246,1.563,0.738c0.34,0.492,0.511,1.244,0.511,2.255C82.552,31.173,81.861,32.165,80.478,32.165z M80.478,31.647
		c0.256,0,0.479-0.047,0.668-0.141c0.188-0.095,0.342-0.241,0.459-0.44c0.118-0.199,0.205-0.453,0.263-0.762
		c0.058-0.31,0.086-0.681,0.086-1.116c0-0.864-0.118-1.494-0.354-1.89c-0.236-0.395-0.61-0.593-1.123-0.593
		c-0.257,0-0.477,0.047-0.66,0.141c-0.183,0.094-0.334,0.242-0.452,0.444c-0.118,0.202-0.206,0.46-0.263,0.774
		c-0.058,0.314-0.086,0.689-0.086,1.123c0,0.435,0.027,0.806,0.083,1.116c0.055,0.309,0.141,0.563,0.259,0.762
		c0.118,0.199,0.269,0.345,0.455,0.44C80,31.599,80.222,31.647,80.478,31.647z"/>
	<path d="M83.472,26.274h0.542l2.498,4.132l0.338,0.66l0.047-0.008v-4.784h0.542v5.813h-0.558l-2.475-4.109l-0.354-0.683
		l-0.047,0.008v4.784h-0.534V26.274z"/>
	<path d="M88.593,26.274h0.574v5.813h-0.574V26.274z"/>
	<path d="M92.481,32.165c-0.833-0.005-1.44-0.245-1.822-0.719c-0.382-0.474-0.573-1.227-0.573-2.259
		c0-0.534,0.046-0.988,0.137-1.363c0.092-0.375,0.233-0.682,0.424-0.923c0.191-0.241,0.437-0.416,0.738-0.526
		c0.301-0.11,0.661-0.165,1.08-0.165c0.257,0,0.547,0.023,0.872,0.07v0.503c-0.105-0.021-0.228-0.037-0.369-0.047
		c-0.141-0.01-0.28-0.016-0.416-0.016c-0.341,0-0.628,0.042-0.864,0.126c-0.236,0.084-0.427,0.223-0.573,0.416
		c-0.147,0.194-0.254,0.448-0.322,0.762c-0.068,0.314-0.102,0.702-0.102,1.163c0,0.445,0.036,0.823,0.106,1.135
		c0.071,0.312,0.179,0.566,0.326,0.762c0.146,0.196,0.335,0.34,0.565,0.428c0.23,0.089,0.508,0.134,0.833,0.134
		c0.089,0,0.214-0.005,0.373-0.016c0.16-0.01,0.308-0.026,0.444-0.047v0.486c-0.121,0.032-0.247,0.055-0.381,0.071
		C92.823,32.158,92.665,32.165,92.481,32.165z"/>
	<path d="M94.171,26.274h0.574v2.592h0.66l1.752-2.592h0.676l-1.768,2.624l-0.252,0.205v0.039l0.267,0.189l1.909,2.757h-0.668
		l-1.885-2.695h-0.691v2.695h-0.574V26.274z"/>
	<path d="M98.059,32.039l1.689-5.766h0.825l1.705,5.766v0.047h-0.55l-0.542-1.783h-2.042l-0.534,1.783h-0.55V32.039z M101.06,29.808
		l-0.637-2.136l-0.236-0.864h-0.055l-0.228,0.864l-0.636,2.136H101.06z M99.913,25.881l0.589-1.092h0.605l-0.739,1.124
		L99.913,25.881z"/>
	<path d="M103.903,31.607l2.545-4.768v-0.047h-2.482v-0.519h3.166v0.479l-2.545,4.777v0.047h2.608v0.511h-3.291V31.607z
		 M104.602,24.789l1.045,0.566l1.052-0.566v0.48l-1.052,0.566l-1.045-0.566V24.789z"/>
	<path d="M107.47,32.039l1.689-5.766h0.825l1.705,5.766v0.047h-0.55l-0.542-1.783h-2.042l-0.535,1.783h-0.55V32.039z
		 M110.471,29.808l-0.637-2.136l-0.236-0.864h-0.055l-0.228,0.864l-0.636,2.136H110.471z M109.324,25.881l0.589-1.092h0.605
		l-0.739,1.124L109.324,25.881z"/>
	<path d="M112.325,26.274h0.573v2.592h0.66l1.752-2.592h0.675l-1.768,2.624l-0.251,0.205v0.039l0.267,0.189l1.909,2.757h-0.668
		l-1.886-2.695h-0.691v2.695h-0.573V26.274z"/>
	<path d="M118.263,32.165c-1.372,0-2.058-0.992-2.058-2.977c0-1.011,0.169-1.762,0.507-2.255c0.338-0.492,0.855-0.738,1.551-0.738
		c0.702,0,1.223,0.246,1.563,0.738c0.34,0.492,0.511,1.244,0.511,2.255C120.337,31.173,119.646,32.165,118.263,32.165z
		 M118.263,31.647c0.257,0,0.479-0.047,0.668-0.141c0.189-0.095,0.342-0.241,0.459-0.44c0.118-0.199,0.206-0.453,0.264-0.762
		c0.058-0.31,0.086-0.681,0.086-1.116c0-0.864-0.118-1.494-0.354-1.89c-0.236-0.395-0.61-0.593-1.123-0.593
		c-0.257,0-0.477,0.047-0.66,0.141c-0.183,0.094-0.334,0.242-0.452,0.444c-0.118,0.202-0.206,0.46-0.263,0.774
		c-0.058,0.314-0.086,0.689-0.086,1.123c0,0.435,0.027,0.806,0.083,1.116c0.055,0.309,0.141,0.563,0.259,0.762
		c0.117,0.199,0.269,0.345,0.455,0.44C117.785,31.599,118.007,31.647,118.263,31.647z"/>
	<path d="M120.62,26.274h0.581l1.296,4.195l0.267,1.029h0.047l0.275-1.029l1.296-4.195h0.566l-1.775,5.813h-0.778L120.62,26.274z"/>
	<path d="M126.731,32.189c-0.116,0-0.24-0.007-0.373-0.02c-0.133-0.013-0.268-0.031-0.404-0.055
		c-0.137-0.024-0.269-0.051-0.397-0.082c-0.128-0.031-0.245-0.068-0.35-0.11l0.055-0.511c0.073,0.037,0.167,0.071,0.283,0.102
		c0.115,0.031,0.237,0.059,0.365,0.082c0.128,0.024,0.258,0.044,0.389,0.059c0.131,0.016,0.252,0.024,0.361,0.024
		c0.372,0,0.659-0.092,0.861-0.275c0.201-0.183,0.302-0.445,0.302-0.786c0-0.293-0.097-0.53-0.29-0.711
		c-0.194-0.181-0.495-0.352-0.904-0.515c-0.225-0.094-0.422-0.19-0.589-0.286c-0.168-0.097-0.306-0.207-0.416-0.33
		c-0.11-0.123-0.193-0.266-0.247-0.428c-0.055-0.162-0.083-0.354-0.083-0.573c0-0.241,0.039-0.46,0.118-0.656
		c0.079-0.196,0.191-0.364,0.338-0.503c0.146-0.139,0.325-0.246,0.534-0.322c0.209-0.076,0.443-0.114,0.699-0.114
		c0.189,0,0.381,0.014,0.578,0.04c0.196,0.026,0.41,0.068,0.64,0.125l-0.039,0.503c-0.236-0.057-0.449-0.098-0.64-0.122
		c-0.192-0.023-0.361-0.035-0.507-0.035c-0.346,0-0.621,0.098-0.825,0.295c-0.204,0.196-0.306,0.46-0.306,0.789
		c0,0.141,0.022,0.265,0.067,0.369c0.044,0.105,0.114,0.201,0.209,0.287c0.094,0.086,0.213,0.169,0.357,0.247
		c0.144,0.079,0.316,0.157,0.515,0.236c0.236,0.099,0.44,0.201,0.613,0.306c0.173,0.105,0.315,0.223,0.428,0.353
		c0.112,0.131,0.195,0.28,0.247,0.448c0.053,0.168,0.079,0.362,0.079,0.582c0,0.497-0.147,0.886-0.44,1.166
		C127.664,32.049,127.255,32.189,126.731,32.189z"/>
	<path d="M129.221,26.274h0.573v2.592h0.66l1.752-2.592h0.675l-1.768,2.624l-0.251,0.205v0.039l0.267,0.189l1.909,2.757h-0.668
		l-1.886-2.695h-0.691v2.695h-0.573V26.274z"/>
	<path d="M133.11,32.039l1.689-5.766h0.825l1.705,5.766v0.047h-0.55l-0.542-1.783h-2.042l-0.535,1.783h-0.55V32.039z
		 M136.111,29.808l-0.637-2.136l-0.236-0.864h-0.055l-0.228,0.864l-0.636,2.136H136.111z M134.964,25.881l0.589-1.092h0.605
		l-0.739,1.124L134.964,25.881z"/>
	<path d="M137.564,27.978c-0.089-0.214-0.134-0.484-0.134-0.809c0-0.126,0.011-0.256,0.031-0.389
		c0.021-0.133,0.05-0.263,0.087-0.389c0.036-0.125,0.08-0.246,0.13-0.361c0.05-0.115,0.106-0.22,0.169-0.315l0.275,0.063
		c-0.074,0.199-0.134,0.409-0.181,0.628c-0.047,0.22-0.07,0.43-0.07,0.629c0,0.272,0.055,0.56,0.165,0.864L137.564,27.978z
		 M139.088,27.978c-0.089-0.214-0.133-0.484-0.133-0.809c0-0.126,0.01-0.256,0.031-0.389c0.021-0.133,0.05-0.263,0.086-0.389
		c0.037-0.125,0.08-0.246,0.13-0.361c0.05-0.115,0.106-0.22,0.169-0.315l0.275,0.063c-0.073,0.199-0.134,0.409-0.181,0.628
		c-0.047,0.22-0.071,0.43-0.071,0.629c0,0.272,0.055,0.56,0.165,0.864L139.088,27.978z"/>
</g>
<g>
</g>
<g>
</g>
<g>
</g>
<g>
</g>
<g>
</g>
<g>
</g>
</svg>
